<svg width="32" height="32" viewBox="0 0 32 32" fill="none" xmlns="http://www.w3.org/2000/svg">
<path d="M16 10V16" stroke="#282828" stroke-width="2" stroke-linecap="round" stroke-linejoin="round"/>
<path d="M21.1962 19L16 16" stroke="#282828" stroke-width="2" stroke-linecap="round" stroke-linejoin="round"/>
<path d="M8.97913 12.4644H3.97913V7.46436" stroke="#282828" stroke-width="2" stroke-linecap="round" stroke-linejoin="round"/>
<path d="M8.22177 23.7782C9.76014 25.3166 11.7202 26.3642 13.8539 26.7886C15.9877 27.2131 18.1995 26.9952 20.2095 26.1627C22.2194 25.3301 23.9374 23.9202 25.1461 22.1113C26.3548 20.3023 26.9999 18.1756 26.9999 16C26.9999 13.8244 26.3548 11.6977 25.1461 9.88873C23.9374 8.07979 22.2194 6.66989 20.2095 5.83733C18.1995 5.00477 15.9877 4.78693 13.8539 5.21137C11.7202 5.6358 9.76014 6.68345 8.22177 8.22183L3.97913 12.4645" stroke="#282828" stroke-width="2" stroke-linecap="round" stroke-linejoin="round"/>
</svg>
