<svg width="24" height="25" viewBox="0 0 24 25" fill="none" xmlns="http://www.w3.org/2000/svg">
<path d="M22.6727 10.7025L12.672 1.61066C12.4879 1.44331 12.2481 1.35058 11.9993 1.35059C11.7505 1.35059 11.5106 1.44334 11.3266 1.6107L1.32726 10.7026C1.22418 10.7963 1.14183 10.9105 1.08547 11.0379C1.02911 11.1653 1 11.3031 1 11.4424V23.0001C1 23.2653 1.10536 23.5197 1.29289 23.7072C1.48043 23.8948 1.73478 24.0001 2 24.0001H22C22.2652 24.0001 22.5196 23.8948 22.7071 23.7072C22.8946 23.5197 23 23.2653 23 23.0001V11.4425C23 11.3031 22.9709 11.1653 22.9145 11.0379C22.8582 10.9105 22.7758 10.7963 22.6727 10.7025Z" stroke="#282828" stroke-width="2" stroke-linecap="round" stroke-linejoin="round"/>
</svg>
