<svg width="22" height="22" viewBox="0 0 22 22" fill="none" xmlns="http://www.w3.org/2000/svg">
<path d="M5.5 1.8335L2.75 5.50016V18.3335C2.75 18.8197 2.94315 19.286 3.28697 19.6299C3.63079 19.9737 4.0971 20.1668 4.58333 20.1668H17.4167C17.9029 20.1668 18.3692 19.9737 18.713 19.6299C19.0568 19.286 19.25 18.8197 19.25 18.3335V5.50016L16.5 1.8335H5.5Z" stroke="white" stroke-linecap="round" stroke-linejoin="round"/>
<path d="M2.75 5.5H19.25" stroke="white" stroke-linecap="round" stroke-linejoin="round"/>
<path d="M14.6666 9.1665C14.6666 10.139 14.2803 11.0716 13.5926 11.7592C12.905 12.4469 11.9724 12.8332 10.9999 12.8332C10.0275 12.8332 9.09483 12.4469 8.40719 11.7592C7.71956 11.0716 7.33325 10.139 7.33325 9.1665" stroke="white" stroke-linecap="round" stroke-linejoin="round"/>
</svg>
